/* XPM */
static char *bbfdd554ef4d4fbf9cf09a26bd6cb300jEfRPP7lvuJhjPno[] = {
/* columns rows colors chars-per-pixel */
"64 64 8 1 ",
"  c None",
". c black",
"X c white",
"o c #E6E6E6",
"O c #1877D6",
"+ c gray21",
"@ c gray62",
"# c #FFBAF6",
/* pixels */
"                          ............                          ",
"                       ...XXXXXXXXXXXX...                       ",
"                     ..XXXXXXXXXXXXXXXXXX..                     ",
"                    .XXXXXXXXXXXXXXXXXXXXXX.                    ",
"                  .XXXXXXXXXXXXXXXXXXXXXXXXXX.                  ",
"                 .XXXXXXXXXXXXXXXXXXXXXXXXXXXX.                 ",
"                 .XXXXXXXXXXXXXXXXXXXXXXXXXXXX.                 ",
"                .XXXXXXXXXXXX.XXXX.XXXXXXXXXXXX.                ",
"                .XXXXXXXXXXX.XXXXXX.XXXXXXXXXXX.                ",
"                .XXXXX.......XXXXXX.......XXXXX.                ",
"                .XXX.........XXXXXX.........XXX.                ",
"                .XX..........XXXXXX..........XX.                ",
"                .XX..........XXXXXX..........XX.                ",
"                 .XX........XXX..XXX........XX.                 ",
"                 .XXXX......XXX..XXX......XXXX.                 ",
"                  .XXXXXXX.XXX....XXX.XXXXXXX.                  ",
"                  .XXXXX..XXXX....XXXX..XXXXX.                  ",
"                 .XXXX.XXXXXXX....XXXXXXX.XXXX.                 ",
"                 .XXXX.XXXXXXXXXXXXXXXXXX..XXX.                 ",
"                 .XX......XXXXXXXXXXXXX.....XX.                 ",
"                  .XXXX..XXX.XX.XXX.XX.X.XXXX.                  ",
"               ....XXXXX..XX.XX.XXX.XX..XXXXX.....              ",
"              .oooo.XXXXXX...XX.XXX.X..XXXXX.oooo..             ",
"             .oooooo.XXXXXXX.........XXXXXX.oooo.O.             ",
"             ....oooo..XXXXXXXXXXXXXXXXXX..oooo.OO.             ",
"            .OOO...oooo...XXXXXXXXXXXX...ooooo.OOOO.            ",
"           .OOOOOOO.oooooo............ooooooo.OOOOO.            ",
"           .OOOOOOOO..ooooo.X.....X.ooooooo..OOOOOOO.           ",
"          .OOOOO.OOOOOO......XXXXX.......OOOOOO.OOOOOO.         ",
"         .OOOOOO.OOOOOO.++....XXXX.....OOOOOOOO.OOOOOO.         ",
"        .OOOOOOO.OOOOOO.++...........+.OOOOOOOO.OOOOOOO.        ",
"        .OOOOOOO.OOOOOO.++...XXXX....+.OOOOOOO..OOOOOOOO.       ",
"       .OOOOOOOO.OOOOOO......XXXXX.....OOOOOO...OOOOOOOO.       ",
"       .OOOOOOOO..O.....++...XXXXX...+.OOOO...O.OOOOOOOO.       ",
"       .OOOOOOOO...OOOOO.++..XXXXX..++.OO...OOO.OOOOOOOOO.      ",
"       .OOOOOOOO.OOOOOOO.+...XXXXX.....O.OOOOOO..OOOOOOOO.      ",
"        .OOOOOO.OOOOOOOO.++..XXXXX..++.O.OOOOOOO.OOOOOOOO.      ",
"         .OOOOO.OOOOOOOO.+...XXXXX....O.OOOOOOOO.OOOOOOO.       ",
"          .OOOO.OOOOOOOOO.+..XXXXX..+.O.OOOOOOOO.OOOOOO.        ",
"           ..OO.OOOOOOOOO.+..XXXXX..+..OOOOOOOOO.OOOOO.         ",
"            .OO.OOOOOOOOO.+.........+.OOOOOOOOO..OOOO.          ",
"            .OO...OOOOOOO.............OOOOOOOO.......           ",
"             ......OOOOOO.......................                ",
"                ................................                ",
"                 ......................@@.......                ",
"                .@..@@.................@@.......                ",
"               .@...@@.................@@......@.               ",
"               .@..@@..........@.......@@......@.               ",
"               .@..@@.........@.@......@@......@.               ",
"               .@..@@.........@.@......@@@.....@.               ",
"               .@..@@.........@.@......@@@......@.              ",
"              .@..@@..........@..@.....@@@......@.              ",
"              .@..@@.........@. .@......@@......@.              ",
"              .@..@@.........@. .@......@@......@.              ",
"              .@..@@.........@. .@......@@......@.              ",
"              .@@@@@.........@. .@......@@@..@@@@.              ",
"               .....@@@@@@@@@.   .@@@@@@@@@@@....               ",
"                    .........     ...........                   ",
"              ....  ....             .X......   ...             ",
"             .####..XXXX.            .XXXXXXX...###..           ",
"           .#########.XX.           .XXXXXX.##########.         ",
"           .#########....           .......###########.         ",
"           .##########.##.         .######.##########.          ",
"            .......... ..           ...... ..........           "
};
