/* XPM */
static char *_5883d49708f452ec842f8d47f483834qad03qs0P3yVmCUI[] = {
/* columns rows colors chars-per-pixel */
"64 64 247 2 ",
"   c #001215",
".  c #00131C",
"X  c #00191C",
"o  c #000F10",
"O  c #000F22",
"+  c #001524",
"@  c #001922",
"#  c #00152B",
"$  c #001A2D",
"%  c #001534",
"&  c #001A34",
"*  c #00163A",
"=  c #001B3B",
"-  c #00223A",
";  c #001641",
":  c #001C40",
">  c #399DB4",
",  c #3AA7BE",
"<  c #2BA9BF",
"1  c #40A3B8",
"2  c #379DC2",
"3  c #1BABCA",
"4  c #0DADDE",
"5  c #06AEDA",
"6  c #1BADD5",
"7  c #13AEDA",
"8  c #1CAEDA",
"9  c #16ABD5",
"0  c #04B2DD",
"q  c #0DB3DC",
"w  c #0CB8DE",
"e  c #0AB7D9",
"r  c #1CB3D5",
"t  c #14B4DC",
"y  c #1BB3DC",
"u  c #14B8DE",
"i  c #1BBADB",
"p  c #16B6D3",
"a  c #15B0CE",
"s  c #23ABCC",
"d  c #2BA7C8",
"f  c #33A3C4",
"g  c #3BA4C4",
"h  c #35A4CB",
"j  c #3BAACC",
"k  c #38A9C8",
"l  c #27B2CD",
"z  c #35B5CD",
"x  c #21ADD4",
"c  c #2AABD3",
"v  c #3CABD2",
"b  c #35ABD2",
"n  c #24B2D6",
"m  c #24BBD5",
"M  c #25B3DA",
"N  c #24BBDC",
"B  c #2ABCDC",
"V  c #2BB4D5",
"C  c #33BBDD",
"Z  c #3BBBDC",
"A  c #39B8D4",
"S  c #03AEE4",
"D  c #0BAFE4",
"F  c #00AFEB",
"G  c #0CAFEB",
"H  c #11AFE4",
"J  c #1DAEE2",
"K  c #04B4E5",
"L  c #0CB4E4",
"P  c #04B9E4",
"I  c #0BBAE4",
"U  c #03B5EC",
"Y  c #0BB5EB",
"T  c #03BAEC",
"R  c #0BBAEC",
"E  c #13B4E4",
"W  c #1AB5E3",
"Q  c #13BAE5",
"!  c #1CBBE3",
"~  c #12B5EA",
"^  c #13BAEB",
"/  c #1ABDEB",
"(  c #18B5E8",
")  c #02B6F3",
"_  c #0AB6F3",
"`  c #02BBF4",
"'  c #0ABBF3",
"]  c #01B6FB",
"[  c #02BBFB",
"{  c #0ABCFB",
"}  c #09B7F9",
"|  c #13BCF2",
" . c #15BAF3",
".. c #00AFF2",
"X. c #24B3E2",
"o. c #23BDE3",
"O. c #2DBEE2",
"+. c #28BCE9",
"@. c #31BDEB",
"#. c #34BEE4",
"$. c #20BFF6",
"%. c #44ABC7",
"&. c #49B4CA",
"*. c #43B3D4",
"=. c #49B9D4",
"-. c #52B4CE",
";. c #69B0C4",
":. c #2BC1DC",
">. c #25C2D9",
",. c #35C4DD",
"<. c #02C1ED",
"1. c #0EC4ED",
"2. c #0DC5EB",
"3. c #1CC1E5",
"4. c #14C3EC",
"5. c #1BC3EB",
"6. c #1CCAED",
"7. c #18C8E9",
"8. c #04C2F4",
"9. c #0BC3F4",
"0. c #02C1FC",
"q. c #0BC3FB",
"w. c #04CCFE",
"e. c #0BCCFD",
"r. c #09C9F4",
"t. c #14C4F4",
"y. c #1DC4F2",
"u. c #12CAF4",
"i. c #1BCBF3",
"p. c #15C6FC",
"a. c #14CBFC",
"s. c #1BCCFC",
"d. c #1DC5FB",
"f. c #1BD5FE",
"g. c #1FDAFF",
"h. c #0ED3FF",
"j. c #23C2E4",
"k. c #2AC1E3",
"l. c #22C3EB",
"z. c #2AC3EC",
"x. c #23CAEE",
"c. c #2DC9EB",
"v. c #28C9E4",
"b. c #32C3E3",
"n. c #3BC3E3",
"m. c #32CBEC",
"M. c #3BCCEC",
"N. c #36C5EA",
"B. c #23C4F3",
"V. c #23C9F2",
"C. c #2CCBF3",
"Z. c #23C6FB",
"A. c #23CBFC",
"S. c #2BCAFA",
"D. c #33CAF2",
"F. c #3BCEF1",
"G. c #31C9F8",
"H. c #28D0F6",
"J. c #23D3FD",
"K. c #2DD3FE",
"L. c #2CDCFE",
"P. c #23D5FA",
"I. c #34D2F4",
"U. c #34D4FC",
"Y. c #3BD6FD",
"T. c #35DBFE",
"R. c #3CDCFE",
"E. c #3AD3F5",
"W. c #2FD0EC",
"Q. c #2CE2FF",
"!. c #2DEAFF",
"~. c #34E4FF",
"^. c #3CE4FF",
"/. c #34EAFF",
"(. c #3CEAFF",
"). c #38F2FF",
"_. c #56C3D7",
"`. c #77CEDC",
"'. c #72D2DF",
"]. c #44C6E8",
"[. c #4CD6EF",
"{. c #57D7EB",
"}. c #4CDBF4",
"|. c #44DCFE",
" X c #4BDDFE",
".X c #45D4F7",
"XX c #55D4F4",
"oX c #55DCF4",
"OX c #5CDBF2",
"+X c #53DCFC",
"@X c #5ADDFD",
"#X c #57D6F7",
"$X c #46CAF1",
"%X c #65D8EC",
"&X c #76D4E7",
"*X c #63DDFA",
"=X c #66D8F2",
"-X c #78D8F5",
";X c #7BCCE9",
":X c #44E3FF",
">X c #4BE3FE",
",X c #43EBFF",
"<X c #4BEAFF",
"1X c #4BE2F6",
"2X c #54E1F6",
"3X c #53E3FE",
"4X c #5AE3FE",
"5X c #54EBFF",
"6X c #5CECFF",
"7X c #53E9F5",
"8X c #4DF2FF",
"9X c #4FFDFF",
"0X c #54F3FF",
"qX c #5BF3FF",
"wX c #5DFDFF",
"eX c #55F9FF",
"rX c #4DE4EF",
"tX c #63E3FE",
"yX c #6CE5FE",
"uX c #63ECFF",
"iX c #69EAFD",
"pX c #73ECFF",
"aX c #62F3FF",
"sX c #6CF4FF",
"dX c #64FEFF",
"fX c #6EFFFF",
"gX c #6CFEFF",
"hX c #73F4FF",
"jX c #7BF6FF",
"kX c #74FEFF",
"lX c #79FFFF",
"zX c #7EFFFF",
"xX c #7BFEFF",
"cX c #81D7E5",
"vX c #8BEFFF",
"bX c #83E3F9",
"nX c #98EDFD",
"mX c #84F5FF",
"MX c #8BF4FF",
"NX c #83FCFF",
"BX c #8BFCFF",
"VX c #92F4FF",
"CX c #9CF4FF",
"ZX c #92FBFF",
"AX c #9BFBFF",
"SX c #A3F6FF",
"DX c #A1ECFF",
/* pixels */
"wXB.fXlXlXzXNXNXzXiX=X%XOXOX=XOXuXgXr.e.R q p :.lXhXNXNXlXkXzXNXBXBXzXkX1X7X{.=X*X@X+XdX,X7.t.~ J C BXmXzXfXY.fXkXNXBXmXNXmX&X% ",
"_ S ! a M.6X4X+X XO.kXlXlXlXlXkXF.^.e.e.u.dXR.fXF.@.J 8 8 y M +XtX@X Xo.v.gXzXzXlXlXqXl./.1.a.^.kXhXjX4Xr t t u 9 3X4XtX+XXX-.& ",
"] { _ L Y L Y t.' Y ~ >Xb.fXV.1.u./.e.0.U Q.fX|.0 9._ _ ' K Y Y L L A.Y P I z.gX:X! V.i.!.e.` ~ lXjXr E L ' ` ` ` U R L i.t f $ ",
"] ] _ ' ` ` 0.) ] ) { D M.fXt.8.T U [ [ 8.0 kX6 I K [ [ ) 0.[ ` ` [ ) [ ` T T.U.<X4.K U 8.T [ Y kX2Xu ' ' ] [ [ [ ] ] ` ) R k $ ",
"} _ Y R ` ` ) [ [ [ ] _ 4XkXK ` U { ] ] ` L zXXXy L U [ ) ` ` ` ` [ ) [ q.T L ^.K.I R T 0.` [ Y r fXq Y U ) _ ) ] 0.[ [ 0.S f $ ",
"L w q q P 8.` ) ) [ ] Y 3 lXY ` 9.` ] [ ) K +XkXgXy.R K R R R T U T [ [ ) Y / dX^.0 ` ` ` [ [ _ u dXwXt.d.~ E W ~ S T ` ]  .h & ",
"fXkXlXkX0X4.i.T ) ` ` L kX XY ] ) U [ [ ` ` R R s.~.gXkXkXkXgXl.l.^ ] ] ' E 6 gXi.T ) ) U [ ] [ ' K ` p.dXlXjXzXlXm.l.^ U L h & ",
">.1XaX2XgX:XdX^ T T T ^.fXk.Y ) ' T ) ` ` T R Y K V.B 2XoX4X5X:XgX,X_ { Y E 3XgXQ P T ' ' U ` U Y Y ) p.+.Z OXNX+XfX:XwXI t h * ",
"gX<XD.W L Y V.dX8X,X(.8X|.fXl.u t e I P I I U.E.5X6X4XkX>Xt L R E 0X8X,X:XwX5.dX8Xt Q L L L w e I.I.Y.<X6XkX6Xk.L R L H.dX6X-X* ",
"^.y.,XK ' Y L t 3.V.5.5.3.! 0XfX>XkX:X:X:X:XfXdX3X X:XB.T.R ' Y L L L y.y.5.6.7.3.dX<XgXkX X1X<X:XfXfX:X:X>XU.^.T ' T I q C -.% ",
"Y ' K.~.~.s.L / ^.y.S.,X~.(.A.5XkXjXBXBXNXlXkXE L R U U t.(.~.(.u.2.f.L.i.H./.~.,Xl.6XBXmXBXNXkXqX:XE L T K 0 L./.Q.e.T I 3X&.# ",
"{ U ' T R i.~.T.t.(.^.T.U ) Y E N.NXVXZXjXs 4 | ' U ` ` ` U R P ~.i.!.f./.(.I R U Y X.NXZXVXBX].7 K | ' ` 0.T P P <.e.f./.z.=X$ ",
"U ` ` U T I ^.A.Y ) U ' [ ` ' Y d. XBXBXrXp Y _ ` ) _ _ _ ) T K E R.R T K Y U ` [ ) ~ |.NXBXjXM.W ' U ` ` ` ` U T ' K /.r.E d : ",
"' T ` 9.L Q dXL R ` ` [ ) ) ) { ` Q =XNX7X^.L _ ' S ^ ^ Y ' K R fXW R { _ _ ) [ ] ) ` ^ O.jXOX2Xt L R ' ) ) T T R Y Q ^.K Q d : ",
"q Q D W 6 kXfX/ U T 0.` ` ` [ [ ` L *XMXz 6X9 +.|.p p Q E 7 X. XkX>XU U [ ) [ ` [ ` [ K 7 zXNX%X+X6  X7 W W 4 E y 6 kX6XL E b & ",
"dX|.0XdXkXuX|.u Q I T T L Y _ [ T u XXBXlXfXkXfXgXfXwX:XdXqXkXkX3Xy E Y _ Y R Y U T ` T y sXNXlXkXkXkXkX3XqX<X:XfXkXuXb.W 8 , $ ",
"lXgXT.Y Y Q :X>X2XoX3Xr x 6 ~ ~ t 3XoXlXu ~ G ~ E q 0XfXkXW ~ L :X>X4X+X+X Xn 6 8 W L ^.1XkX:Xt L L E u W dXwXR Y L t >X>XXXcX  ",
"< l 6 W ~ K.x.dXlXNXzXzXNXlXgXA. XsXkX}.t Y  .Z.B.c.b.s c x 7 Y.m..XkXzXzXzXzXlXkXfXD.fXsXoXr u L A.B.+.N.x y t E u U.|.fXNXSX  ",
"BXMXBXZXjXlXfX:X>X|.1XkXBXOXt.1.5XzXNX=.hXkXfXkXkXlXmXBXBXBXBXmXkXkX:X:X XlXOXzXC.V.kXjXmX_.mXjXkXkXzXNXBXMXBXBXBXNXlXfX,X X'.X ",
"ZXMXVXBXBX+Xt Q K (.,X}.zXlX1.u.5Xl NXNXlXz.8 8 l NXBXZXmXBXBXNXx u I 6.:X3X@XkX^.5.kX=.VXZXBXtX@.9 V jXmXBXAXVXBXjX4X7 R W %X+ ",
"mXNXhX6 B.Y K ' { ) t.,X:X^.f.t.3XNXNXlX5.T Y | q r hXzXkX6XW E Y P 0 0 E :X>X^.y.0XN.mXvXBXF.^ | Y R L z.kXNXyXn l.E K T 4 v % ",
"d lX X4 _ [ ` ` ) [ ) ' K K ' K B kXzXb.P 0.` U R Q 3 lX5X5 U [ ` ` T P R Y Y R Y L qXn.BXNXq ` U [ ` ` L r hX+X4 U U T 8. .h ; ",
"oXkXkX( ' ) T U ) ` ) ) ' ) U 9.y.dXkXz.a.` [ ` U I k.kXgXi K [ ] ] [ ` ` ` [ ) ) T P ^.qXW.f.0.[ [ [ U ! .XNXlX~ _ [ [ ` ~ d = ",
"kXr >XL _ _ R P U ` [ ) ] ) ` U E :XkX/ a.w.e.e.s.Q gXr a gXL U ] ] ] [ [ [ [ ` ) ' P P :XK.q.w.e.0.e.a.5XkXx fXE U ) [ ) q k & ",
"| K I wX .U I P T U [ ] ] [ U L D.3XH ' ` ` ` t.O.kXdXE p wXwXE Y ' Y U [ [ ) ` 0.U 4.R.kXy U ` T e.r.s.wXq R L gXH _ ` ` w f $ ",
"R I 4.5.U.^ (.~.(.Y _ _ { U Q >X+XkX^ ` T ` P w lXNXX.E ! i G.dX>X:XT.I Y U Y ' T R R.3XkX8 R T K I l.gXr t I t.! dXW ~.~.Y., + ",
"dXgXdXv.o.gXj.v.|.>XW 4 I 5 .X4XuX>XI T ` T P 3.zXNX@.kXkXkX+.z.kX[.v.,X|.y W y t :Xb.gXlXW U ` T u NXmXNXNXfXkXl.o.lX4Xz.4X`.X ",
".Xi c.I.5XfXdX8XqX5XqXdXwXdXaXaXfXR.t.e.e.).L.wXlX+X|.J X.Y.U.<XkXaX<X:XkXaXqXqXdXwXgX>X:X5.q.g.,X|.jXyX].$XV M.K.eXkXsX5XtXnX. ",
"S | Y U _ _ T u.R 0 u R.kXkXR.6.4.).a.9.T J.fX6Xt L T '  .D Y ' Y K t.R K (.5.dXwX3.p.' ~.t.a.t.>XfX3.Q L Y Y R ' U Y ~ Z.J v & ",
"[ [ ) { ) [ ` ` U ' R T.Z lX7.<.T ` T U q.R kXV ^ ` ` ) ) { ) ` [ ` ` T ` 8.i.5.(.6.` [ ' U ` R kX>XI T U [ [ ) ) [ [ [ ) H c : ",
"` ) [ ] [ ` U ) [ ) ` L  XlXt.` ` [ [ { ..~ zXs K T ` [ ` [ [ ) ` ` [ ) [ ` R ^.8XL U q.) ) [ U u qXY [ 0.[ ` [ ` [ ` ` ` ^ b = ",
"T ' Y R K P R ) { ) [ T  XkX' [ [ [ [ ) { Y kXaXQ I R Y R K U ' U _ ) [ [ ` L :XT.Y R ) [ [ [ ` y.gXY _ U _ R Y T K 9.U T L b = ",
"eXwXsXsXi 6.L Y U ` 8.K dX>XU ] ` ` ` ` ` _  .$.dXgXdXfXpXhX6X/ B.Y ) ) ` R 6 kXS._ ` ) ] [ T ` ` ' J.dXdXgXiXsXaXj.3.I T L b = ",
":.}.zX2XgX^.wXW ^ K T I gXb.Y ] ` ` 8.U ` U _ Y u :.V {.ZXNX3X:XgXZ.R ' K E |.fX/ R ` 0.] ] ` ` ` U Y l.k.z yXNX3XdX:X8XL W f & ",
"2XkX|.H.U s.qX3X+.u u :XkX+XW L T ` ` [ _ '  .L 5.j.#.lX2Xc.Y ' Z.dXj.i y G.V.wXp t T ) [ ] ) ' R L / j.B 3XkX XA.R H.eX:XB %.# ",
"1X:Xx.T ) [ E y fXgXdX! b.kXgXW / L L L E |.:X<X,XwXgX>X:Xw ` ) Y u dXdXkXfXt.4.dXdX3.Q R Y ^ B.:X:X:XgXdX:X|.~ ) ` 0 w Q fXVX+ ",
"~.4.~.~.' ' 0 w A.t.t.J.y.K.y.dX6XlX4X4XuX5XgXeXL.Q.Q.t.~.(.a.{ T K u.i.5.5.s.J.V.0XfXlXlXtXtX4XaXfXR.T.L.~.A.(.~.q.9.K T S.%.$ ",
"U ' ) U ' ~.(.~.a.g.!./.` T K V.@.NXmXBXkX,.y q I 0 ` U T T ) a.~.s.!.e.~.(.a.P R u m zXBXMXmXhXN u q R P K 9.S U T ~.J.!.y.*X$ ",
"` [ ` [ _ G ^.T.t.` ` [ ` ` T P c.kXBXBX1Xe L ' U ` U ' ` ) [ U ^.6.a.T ` U 0.` F t.L >XNXmXzXm.q T _ ) ` 8.K ` { _ q (./.3.f & ",
"` ) ` ` _ ~ dXQ R ) [ ] [ ` T T I k.mXBX3Xx.R U ) ' U _ ` ` } Y 0XU.T T ` ` ` [ { ) ) y.+XNX2X:XL ' _ ) T T U ' _ Y W dXI q v * ",
"T P P L Q t dXQ T ` [ ] ` ` ` ` ` L +XNX+X>X( Y L L Y Y Y I L u gXt 8.` [ 0.) [ _ } [ ' y sX4X}.W Y ~ ~ U ' U _ Y E W R.K W h * ",
"P.5.K.T.U.gX:Xe P R ) { Y K ` ` U ^ 4XlXkX5XK.8XeXK.K.A.K.U.T.dXdXW R ` Y U ) { _ _ ) U W gXkXaX0XT.0XK.A.d.Z.A.T.K.dXY.K W 2 % ",
"dXdX0XL L ~.,Xi p >X:XE Q Q _ _ ~ |.oXzX>XQ Y ) ) _ <XfX0X:XR ^. X>Xt z. X6 ^ U ' T ' L @XjXkXu Y ' U ' ,XgXfXfXL Y ~.~.Q n &X+ ",
"x M M 8 y o.|.3X4XkXkXn 3XkXA.L z.kXzX+Xt 4 / q ~ E x s s n 7 W n @X+XlXNXzXB <X8XQ Q >XjXNX Xy E L ^ W r l d V y u j.:X:X4XCX. ",
"MXvXMXMXBXZXBXmXNXNXNXBXBXjXfXfXkXfX>.v.o.kXhXBXNXmXZXvXBXmXmXBXMXmXBXjXBXMXmXzXkXfXlXNXlXz A hXgXzXNXmXBXMXMXMXMXmXBXNXlXNXDXO ",
"nXAXMXZXBXmXmXyX@X#XOXjXNX*XC m 4X,.gXv.fX|.NXmXNXBXVXCXVXMXBXmXNXNXoX}.*XBX%XNXM.:.lX&.jX{.hXzX,.kXNXZXZXVXAXVXVXZXmXNX4X#X;X# ",
"CXVXBX$XY.w Q 0 Y ^ ^.:XY.6X6Xn.hXmXNXlXR.I ( E L i jXMXZXNX.XC.W L R R B.|.>X5XdX+.3XtXBXNXkX! L L t 6 yXZXMXBX.XI.t w L o.2 % ",
"VXBX+XQ K ` T 0.[ ` T R 0 ^ E gXZ mXBXn.K T { ) [ T l NXpXc W U ` ` [ ` ` ' K ^ _ ~ k.lXNXzXl.U ` ` T ( n jXBX#XE T ` ` ` D v & ",
"k jX3XQ ) [ ` [ [ [ ) ) ' K ' Y aXjXzX+.' ` ` ` [ T M jXzXn E T ` ` ` [ ) [ ) ) ) U B.gXkXI.u.<.T ` ` _ E M lXM.L ' U _ _ E h = ",
"kX3X>XL { ] } ) ` ` ] [ U 8.[ _ r 4XfXy.a.e.T T ` K aXlXb.fXL T U ` ` U [ [ [ [ ` ' Y ( :XH.e.w.` ` ) U B.dX|.dXI U ' { U E b = ",
"gXa u wXY ' K ' T ` [ F ` T T R p  XgXi.r.e.q.s.u.s.dXW 7 dXZ.Y ' ` U 8.` ` ` ` U U Y :X:XT.9.e.e.q.a.y.fXkXL | dXY F _ T E c : ",
"p i t C.<Xu R.Y.L R Y ` ' ' T L >XkXu K <.T ' K V.wXt W t l.gXL H T.L K U U U T R R ^.:XgXu R ` ` T i.gX].n E L C.z.E ^.L.t v = ",
"6 fXO.k.[.kXlXA 3Xc.Q K R Y L :X+XkXR [ ` T ` w lXBXd kX5Xm B lXNXZ @X XW ^ I 0 e :Xc.gXkXt ) ) ` L N zXl 3 kX@.C sXzXOX:.4X> $ ",
"fXz.dXgXkXkXlXlXkXgX:X:X:X:X<X|.hXqXa.w.0.` K Y.lXpXzX X>XgXkXkXzXjXkXkX5X|.:X:X:X|.<XfX:X5.p.{ Y C.kXgXdXgXD.kXkXlXNXzXkXhXbX+ ",
"R K U R y.:X:X:X>X6 fXkXzXkXkXfXN ^.h.w.a.wX:XfXj.E  ._ U R L :X^.^.,XE E kXhXlXkXgX9X7.(.i.p.R.kXzXkX:XI P K R L R.>X>X:X|.k & ",
"` ` ` [ ` ) R | L W t >XA NXB l.5.Q.8.e.T V.lXF.R ` ] ] [ ` U R T <.9.Y ~ E #.sX Xl.7.1.L.t.U  .NXpXr P T T ` ` ' Y R L t.u f = ",
") [ [ ) [ [ U ' _ ' P e 2XkXx.P T K ' _ ' ^ gXn R U ) ` ` ` ` ` ` T ` ` ' L :X>X0XW _ ) ' _ [ Y kXhXW U ' T ` [ ` ` [ ) T 7 b ; ",
"' U _ [ ) [ ` ' ] ] ` I }.lXq ` U 8.) _ U Y kX.XE K Y K R Y ' ` T ` [ ) [ Y t >XY.L } ] ) ] [ ) N gXE R 0 R Y ' ` 0.[ ) ` W v ; ",
"t u u Q R K R U ] [ ) K n kXY [ [ [ [ [ ` T :XgXgX0XO.9 8 W L R T ` ` [ {  .t fXU.^ ` [ [ [ [ ` I 0XgX5XaX6 M 8 L K ` ` U E h * ",
"kXkXkXdX0XV.5.L ' U ' / kX X_ [ 0.) [ [ ` U R u o. XkXzXkXkXdX5.4.L ' _ Y ~ y fXC.L ` ) [ U ` ` U I t O.lXzXzXkXgXA.a.9.T 7 j % ",
"C uX6X>X<XR.fXN.r M 6  XfXl.' ` [ [ ] ) 0.T I t N B #.uX5X^.K.K.wXqXy y 8 6 .XfXQ I ` 0.U q.T T T P u O.C C 6XqX^.~.^.wXI m 1 + ",
"NX@Xn.x 8 X.c jXNXNXzXhX,.fXD.7 W E ~ ~ 4 y  X4XlXzXmXNX4Xm 9 y c *XNXlXzXlXZ kXkXa ! t y y t Q >X|.+XzXBXNX+Xn r y n x kXlXCX. ",
"-X&.=Xg j h g g =.%.*.*.*.&.cXSX&XMX=X=X-X&XSXnX'.&X-X&.%Xg j h g %.f =.z *.=.%.-.VX-XCXnX&X%X=X&XCXSX`.`.&X_.=Xg g %.g h -.;.O ",
"# & & = & & = & & = : : = $   o   @ + # + .     . @ @ $ $ & * ; * & - = - = & & # # O . . . # # .   . . . X $ $ $ # % % = % + O "
};
